<?xml version="1.0" encoding="UTF-8" standalone="no"?>
<!-- Created with Inkscape (http://www.inkscape.org/) -->

<svg
   version="1.1"
   id="svg1"
   width="682.66669"
   height="682.66669"
   viewBox="0 0 682.66669 682.66669"
   sodipodi:docname="hypandralogo.ai"
   xmlns:inkscape="http://www.inkscape.org/namespaces/inkscape"
   xmlns:sodipodi="http://sodipodi.sourceforge.net/DTD/sodipodi-0.dtd"
   xmlns="http://www.w3.org/2000/svg"
   xmlns:svg="http://www.w3.org/2000/svg">
  <defs
     id="defs1">
    <clipPath
       clipPathUnits="userSpaceOnUse"
       id="clipPath3">
      <path
         d="M 0,512 H 512 V 0 H 0 Z"
         transform="translate(-233.974,-195.377)"
         id="path3" />
    </clipPath>
    <clipPath
       clipPathUnits="userSpaceOnUse"
       id="clipPath5">
      <path
         d="M 0,512 H 512 V 0 H 0 Z"
         transform="translate(-211.70401,-232.92101)"
         id="path5" />
    </clipPath>
    <clipPath
       clipPathUnits="userSpaceOnUse"
       id="clipPath7">
      <path
         d="M 0,512 H 512 V 0 H 0 Z"
         transform="translate(-198.934,-247.13201)"
         id="path7" />
    </clipPath>
    <clipPath
       clipPathUnits="userSpaceOnUse"
       id="clipPath9">
      <path
         d="M 0,512 H 512 V 0 H 0 Z"
         transform="translate(-236.75701,-143.622)"
         id="path9" />
    </clipPath>
  </defs>
  <sodipodi:namedview
     id="namedview1"
     pagecolor="#ffffff"
     bordercolor="#000000"
     borderopacity="0.25"
     inkscape:showpageshadow="2"
     inkscape:pageopacity="0.0"
     inkscape:pagecheckerboard="0"
     inkscape:deskcolor="#d1d1d1">
    <inkscape:page
       x="0"
       y="0"
       inkscape:label="1"
       id="page1"
       width="682.66669"
       height="682.66669"
       margin="0"
       bleed="0" />
  </sodipodi:namedview>
  <g
     id="layer-MC0"
     inkscape:groupmode="layer"
     inkscape:label="Torch">
    <path
       id="path2"
       d="m 0,0 c 0,0 -20.076,-11.666 0.372,-49.438 0,0 22.953,-32.9 -0.372,49.438"
       style="fill:#72171e;fill-opacity:1;fill-rule:nonzero;stroke:none"
       transform="matrix(1.3333333,0,0,-1.3333333,311.96533,422.164)"
       clip-path="url(#clipPath3)" />
    <path
       id="path4"
       d="m 0,0 c 10.731,-14.428 19.403,-33.593 22.507,-52.779 1.273,-7.395 1.563,-13.393 1.729,-20.695 0.403,-17.655 3.539,-45.695 4.988,-61.974 0.652,-6.764 5.629,-14.252 15.822,-12.442 5.806,1.034 8.983,7.105 9.573,12.287 1.428,16.393 3.249,35.31 4.377,51.662 0.414,5.905 0.435,6.454 0.611,10.012 1.097,23.095 5.546,65.841 38.796,90.343 C 78.689,6.992 49.889,1.241 18.958,6.082 14.177,6.785 9.717,7.747 5.37,8.885 c -5.629,1.458 -11.052,3.216 -16.754,5.109 h -0.051 c -0.932,0.279 -1.366,0.393 -1.356,0.217"
       style="fill:#2b8fcb;fill-opacity:1;fill-rule:nonzero;stroke:none"
       transform="matrix(1.3333333,0,0,-1.3333333,282.272,372.10533)"
       clip-path="url(#clipPath5)" />
    <path
       id="path6"
       d="m 0,0 c -15.419,20.686 -29.659,61.674 8.258,94.698 0.083,0.072 0.201,0.165 0.341,0.27 1.42,1.068 3.789,2.409 4.553,0.804 0.352,-0.738 0.306,-2.096 -0.724,-4.549 -0.61,-1.458 -1.469,-3.196 -1.821,-4.365 -2.68,-8.719 0.621,-27.015 22.342,-24.015 3.488,0.486 6.716,2.068 9.169,4.488 4.098,4.003 9.79,11.481 10.628,22.661 0.114,1.614 0.062,3.237 -0.135,4.851 -0.6,5.026 -1.956,17.355 -9.034,31.338 -5.236,10.353 -12.739,38.03 7.234,53.834 0.132,0.105 0.29,0.187 0.443,0.258 6.09,2.82 4.549,-5.102 4.058,-8.687 -0.124,-0.61 -0.321,-2.027 -0.393,-2.648 C 49.703,119.707 167.552,91.378 111.98,3.537 111.422,2.658 110.594,1.914 109.631,1.479 108.803,1.107 104.126,-1.013 98.6,-2.906 96.375,-3.671 88.655,-6.216 78.11,-8.015 74.095,-8.708 69.645,-9.288 64.791,-9.619 60.787,-9.887 57.03,-9.97 53.574,-9.918 c -4.109,-0.011 -8.652,0.144 -13.526,0.599 -5.35,0.507 -10.224,1.283 -14.56,2.162 -4.16,0.869 -7.616,1.769 -10.235,2.493 0,0 -3.994,1.117 -9.344,2.854"
       style="fill:#fe7d27;fill-opacity:1;fill-rule:nonzero;stroke:none"
       transform="matrix(1.3333333,0,0,-1.3333333,265.24533,353.15733)"
       clip-path="url(#clipPath7)" />
    <path
       id="path8"
       d="m 0,0 c -0.434,0.828 -1.035,1.179 -3.311,5.658 -4.781,9.246 -8.662,25.919 -5.092,36.044 6.22,16.817 32.805,25.712 49.766,32.497 3.798,1.458 7.492,2.937 10.742,5.306 3.767,2.668 11.186,7.033 17.623,14.159 4.523,5.016 9.283,10.777 12.636,16.455 4.977,8.657 6.364,16.228 8.278,25.795 1.004,5.306 1.853,10.136 1.532,12.67 -0.067,0.62 -0.037,2.292 -0.416,3.506 -0.258,0.825 -1.064,1.422 -1.918,1.288 -1.939,-0.303 -3.701,-2.988 -4.475,-3.915 C 80.429,142.999 74.716,132.728 70.949,125.178 65.723,114.753 59.225,106.354 48.224,100.8 36.365,94.988 21.132,98.215 27.31,114.184 c 3.932,11.46 17.261,19.899 16.268,32.445 -0.159,1.703 -0.648,4.397 -1.881,5.519 -0.566,0.515 -1.437,0.523 -2.102,0.146 -1.532,-0.869 -2.864,-3.183 -5.083,-5.737 C 26.389,136.255 16.465,130.091 5.971,121.982 -1.314,116.356 -8.837,110.088 -15.067,103.438 -32.846,85.824 -34.139,58.519 -25.395,36.407 c 3.819,-9.66 10.1,-19.29 16.092,-27.688 2.049,-2.71 8.424,-8.988 9.396,-10.105"
       style="fill:#ec292f;fill-opacity:1;fill-rule:nonzero;stroke:none"
       transform="matrix(1.3333333,0,0,-1.3333333,315.676,491.17067)"
       clip-path="url(#clipPath9)" />
  </g>
</svg>